<svg width="82" height="96" viewBox="0 0 82 96" fill="none" xmlns="http://www.w3.org/2000/svg">
<g id="Group">
<path id="Vector" d="M0 37.7052V21.6774L40.9939 0L82 21.6774V37.7069C82 47.0934 79.6824 56.3399 75.2459 64.6544C70.8094 72.9688 64.3862 80.1031 56.5266 85.4462L41.0022 96L25.4758 85.446C17.6155 80.103 11.1917 72.9685 6.75477 64.6538C2.31782 56.3391 2.5711e-05 47.0921 0 37.7052Z" fill="#2A75E6"/>
<g id="Vector_2">
<path d="M0.9375 48C2.31753 55.52 5.19555 62.6987 9.40657 69.1244C13.6176 75.5502 19.0788 81.0967 25.4772 85.446L41.0036 96L56.528 85.4462C62.926 81.0967 68.3869 75.5501 72.5976 69.1243C76.8082 62.6985 79.6859 55.5199 81.0657 48H0.9375Z" fill="#F9D549"/>
<path d="M0.9375 48C2.31753 55.52 5.19555 62.6987 9.40657 69.1244C13.6176 75.5502 19.0788 81.0967 25.4772 85.446L41.0036 96L56.528 85.4462C62.926 81.0967 68.3869 75.5501 72.5976 69.1243C76.8082 62.6985 79.6859 55.5199 81.0657 48H0.9375Z" fill="black" fill-opacity="0.2"/>
</g>
<g id="Vector_3">
<path d="M41.0029 88.2583C40.6833 88.2584 40.3713 88.1631 40.1082 87.985L29.0697 80.5175C22.0563 75.782 16.3202 69.4437 12.3552 62.0483C8.39018 54.653 6.31509 46.4222 6.30859 38.0646V26.3507C6.3086 26.0683 6.38726 25.7913 6.53606 25.5496C6.68487 25.3079 6.89816 25.1108 7.15284 24.9796L40.2627 7.91947C40.4887 7.80302 40.7401 7.74219 40.9954 7.74219C41.2506 7.74219 41.502 7.80302 41.7281 7.91947L74.8488 24.98C75.1035 25.1112 75.3168 25.3083 75.4656 25.5499C75.6145 25.7916 75.6932 26.0687 75.6932 26.3511V38.0664C75.6866 46.4235 73.6117 54.6539 69.647 62.049C65.6823 69.4441 59.9467 75.7822 52.9339 80.5179L41.8976 87.9848C41.6345 88.163 41.3225 88.2584 41.0029 88.2583ZM9.46244 27.2867V38.0646C9.469 45.9204 11.4199 53.6569 15.1472 60.608C18.8746 67.5591 24.2666 73.5166 30.8591 77.9675L41.0025 84.8296L51.1443 77.9679C57.7363 73.517 63.1278 67.5596 66.8549 60.6087C70.5819 53.6579 72.5327 45.9218 72.5394 38.0664V27.2875L40.9956 11.0391L9.46244 27.2867Z" fill="#2568CC"/>
<path d="M41.0029 88.2583C40.6833 88.2584 40.3713 88.1631 40.1082 87.985L29.0697 80.5175C22.0563 75.782 16.3202 69.4437 12.3552 62.0483C8.39018 54.653 6.31509 46.4222 6.30859 38.0646V26.3507C6.3086 26.0683 6.38726 25.7913 6.53606 25.5496C6.68487 25.3079 6.89816 25.1108 7.15284 24.9796L40.2627 7.91947C40.4887 7.80302 40.7401 7.74219 40.9954 7.74219C41.2506 7.74219 41.502 7.80302 41.7281 7.91947L74.8488 24.98C75.1035 25.1112 75.3168 25.3083 75.4656 25.5499C75.6145 25.7916 75.6932 26.0687 75.6932 26.3511V38.0664C75.6866 46.4235 73.6117 54.6539 69.647 62.049C65.6823 69.4441 59.9467 75.7822 52.9339 80.5179L41.8976 87.9848C41.6345 88.163 41.3225 88.2584 41.0029 88.2583ZM9.46244 27.2867V38.0646C9.469 45.9204 11.4199 53.6569 15.1472 60.608C18.8746 67.5591 24.2666 73.5166 30.8591 77.9675L41.0025 84.8296L51.1443 77.9679C57.7363 73.517 63.1278 67.5596 66.8549 60.6087C70.5819 53.6579 72.5327 45.9218 72.5394 38.0664V27.2875L40.9956 11.0391L9.46244 27.2867Z" fill="black" fill-opacity="0.2"/>
</g>
</g>
</svg>
