<svg width="82" height="96" viewBox="0 0 82 96" fill="none" xmlns="http://www.w3.org/2000/svg">
<path d="M0 37.7052V21.6774L40.9939 0L82 21.6774V37.7069C82 47.0934 79.6824 56.3399 75.2459 64.6544C70.8094 72.9688 64.3862 80.1031 56.5266 85.4462L41.0022 96L25.4758 85.446C17.6155 80.103 11.1917 72.9685 6.75477 64.6538C2.31782 56.3391 2.5711e-05 47.0921 0 37.7052Z" fill="#2A75E6"/>
<path d="M0.9375 48C2.31753 55.52 5.19555 62.6987 9.40657 69.1244C13.6176 75.5502 19.0788 81.0967 25.4772 85.446L41.0036 96L56.528 85.4462C62.926 81.0967 68.3869 75.5501 72.5976 69.1243C76.8082 62.6985 79.6859 55.5199 81.0657 48H0.9375Z" fill="#F9D549"/>
<path d="M0.9375 48C2.31753 55.52 5.19555 62.6987 9.40657 69.1244C13.6176 75.5502 19.0788 81.0967 25.4772 85.446L41.0036 96L56.528 85.4462C62.926 81.0967 68.3869 75.5501 72.5976 69.1243C76.8082 62.6985 79.6859 55.5199 81.0657 48H0.9375Z" fill="black" fill-opacity="0.2"/>
<path d="M41.0029 88.2583C40.6833 88.2584 40.3713 88.1631 40.1082 87.985L29.0697 80.5175C22.0563 75.782 16.3202 69.4437 12.3552 62.0483C8.39018 54.653 6.31509 46.4222 6.30859 38.0646V26.3507C6.3086 26.0683 6.38726 25.7913 6.53606 25.5496C6.68487 25.3079 6.89816 25.1108 7.15284 24.9796L40.2627 7.91947C40.4887 7.80302 40.7401 7.74219 40.9954 7.74219C41.2506 7.74219 41.502 7.80302 41.7281 7.91947L74.8488 24.98C75.1035 25.1112 75.3168 25.3083 75.4656 25.5499C75.6145 25.7916 75.6932 26.0687 75.6932 26.3511V38.0664C75.6866 46.4235 73.6117 54.6539 69.647 62.049C65.6823 69.4441 59.9467 75.7822 52.9339 80.5179L41.8976 87.9848C41.6345 88.163 41.3225 88.2584 41.0029 88.2583ZM9.46244 27.2867V38.0646C9.469 45.9204 11.4199 53.6569 15.1472 60.608C18.8746 67.5591 24.2666 73.5166 30.8591 77.9675L41.0025 84.8296L51.1443 77.9679C57.7363 73.517 63.1278 67.5596 66.8549 60.6087C70.5819 53.6579 72.5327 45.9218 72.5394 38.0664V27.2875L40.9956 11.0391L9.46244 27.2867Z" fill="#2568CC"/>
<path d="M41.0029 88.2583C40.6833 88.2584 40.3713 88.1631 40.1082 87.985L29.0697 80.5175C22.0563 75.782 16.3202 69.4437 12.3552 62.0483C8.39018 54.653 6.31509 46.4222 6.30859 38.0646V26.3507C6.3086 26.0683 6.38726 25.7913 6.53606 25.5496C6.68487 25.3079 6.89816 25.1108 7.15284 24.9796L40.2627 7.91947C40.4887 7.80302 40.7401 7.74219 40.9954 7.74219C41.2506 7.74219 41.502 7.80302 41.7281 7.91947L74.8488 24.98C75.1035 25.1112 75.3168 25.3083 75.4656 25.5499C75.6145 25.7916 75.6932 26.0687 75.6932 26.3511V38.0664C75.6866 46.4235 73.6117 54.6539 69.647 62.049C65.6823 69.4441 59.9467 75.7822 52.9339 80.5179L41.8976 87.9848C41.6345 88.163 41.3225 88.2584 41.0029 88.2583ZM9.46244 27.2867V38.0646C9.469 45.9204 11.4199 53.6569 15.1472 60.608C18.8746 67.5591 24.2666 73.5166 30.8591 77.9675L41.0025 84.8296L51.1443 77.9679C57.7363 73.517 63.1278 67.5596 66.8549 60.6087C70.5819 53.6579 72.5327 45.9218 72.5394 38.0664V27.2875L40.9956 11.0391L9.46244 27.2867Z" fill="black" fill-opacity="0.2"/>
<path d="M16.54 35.0723V33.6743L18.106 33.9143V34.2203H21.208V33.7583L16.54 32.9723V30.8723H22.774V35.0723H16.54ZM18.106 32.2343L21.208 32.7563V31.7243H18.106V32.2343ZM23.6711 33.3983V32.5463H27.7991V33.3983H23.6711ZM28.6396 35.0723V31.8923H30.1396V33.7523L32.5696 32.8163V31.8923H34.0696V32.2403L34.8196 31.9523V32.8823L34.0696 33.1703V35.0723H32.5696V33.7463L30.1396 34.6823V35.0723H28.6396ZM30.5296 31.9823V31.2023L31.1596 30.9623V30.4523H32.6596V31.1723L30.5296 31.9823ZM37.2227 31.7243V30.8723H44.3507V35.0723H42.7847V31.7243H39.6827V35.0723H38.1167V31.7243H37.2227ZM45.5512 35.0723V30.8723H51.7852V35.0723H45.5512ZM47.1172 34.2203H50.2192V31.7243H47.1172V34.2203ZM52.4467 35.0723L53.9107 31.7243H53.1667V30.8723H57.3367L59.1607 35.0723H57.5407L56.0767 31.7243H55.5367L54.0727 35.0723H52.4467ZM59.1602 34.2623V33.1883L60.0542 32.9483V30.8723H61.6202V32.5223L64.6862 31.6943V30.8723H66.2522V32.3483L63.8342 33.0023L65.2502 34.1723H66.2882V35.0723H64.3202L62.3462 33.3983L61.6202 33.5963V35.0723H60.0542V34.0223L59.1602 34.2623Z" fill="#F8F7F7"/>
<path d="M18.639 44.1143C18.315 44.1143 18.023 44.0443 17.763 43.9043C17.503 43.7643 17.299 43.5703 17.151 43.3223C17.007 43.0703 16.935 42.7863 16.935 42.4703C16.935 42.1543 17.007 41.8723 17.151 41.6243C17.299 41.3763 17.503 41.1823 17.763 41.0423C18.023 40.9023 18.315 40.8323 18.639 40.8323C18.967 40.8323 19.261 40.9023 19.521 41.0423C19.781 41.1823 19.983 41.3763 20.127 41.6243C20.275 41.8723 20.349 42.1543 20.349 42.4703C20.349 42.7863 20.275 43.0703 20.127 43.3223C19.983 43.5703 19.781 43.7643 19.521 43.9043C19.261 44.0443 18.967 44.1143 18.639 44.1143ZM18.639 43.4723C18.915 43.4723 19.143 43.3803 19.323 43.1963C19.503 43.0123 19.593 42.7703 19.593 42.4703C19.593 42.1703 19.503 41.9283 19.323 41.7443C19.143 41.5603 18.915 41.4683 18.639 41.4683C18.363 41.4683 18.135 41.5603 17.955 41.7443C17.779 41.9283 17.691 42.1703 17.691 42.4703C17.691 42.7703 17.779 43.0123 17.955 43.1963C18.135 43.3803 18.363 43.4723 18.639 43.4723ZM24.1619 40.8683V44.0723H23.4179V41.5043H21.8399V44.0723H21.0899V40.8683H24.1619ZM26.6859 43.4783C27.0339 43.4783 27.3239 43.3623 27.5559 43.1303L27.9519 43.5923C27.8119 43.7643 27.6319 43.8943 27.4119 43.9823C27.1919 44.0703 26.9439 44.1143 26.6679 44.1143C26.3159 44.1143 26.0059 44.0443 25.7379 43.9043C25.4699 43.7643 25.2619 43.5703 25.1139 43.3223C24.9699 43.0703 24.8979 42.7863 24.8979 42.4703C24.8979 42.1583 24.9679 41.8783 25.1079 41.6303C25.2519 41.3783 25.4479 41.1823 25.6959 41.0423C25.9479 40.9023 26.2319 40.8323 26.5479 40.8323C26.8479 40.8323 27.1199 40.8983 27.3639 41.0303C27.6119 41.1583 27.8079 41.3443 27.9519 41.5883C28.0959 41.8283 28.1679 42.1103 28.1679 42.4343L25.7139 42.9143C25.7899 43.0983 25.9119 43.2383 26.0799 43.3343C26.2479 43.4303 26.4499 43.4783 26.6859 43.4783ZM26.5479 41.4323C26.2719 41.4323 26.0479 41.5223 25.8759 41.7023C25.7079 41.8823 25.6239 42.1243 25.6239 42.4283V42.4343L27.4359 42.0863C27.3839 41.8903 27.2779 41.7323 27.1179 41.6123C26.9619 41.4923 26.7719 41.4323 26.5479 41.4323ZM30.4845 40.8323C30.8165 40.8323 31.1065 40.9003 31.3545 41.0363C31.6065 41.1723 31.8005 41.3643 31.9365 41.6123C32.0765 41.8603 32.1465 42.1483 32.1465 42.4763C32.1465 42.8003 32.0805 43.0863 31.9485 43.3343C31.8165 43.5823 31.6305 43.7743 31.3905 43.9103C31.1545 44.0463 30.8805 44.1143 30.5685 44.1143C30.1245 44.1143 29.7765 43.9723 29.5245 43.6883V45.2363H28.7685V42.4823C28.7685 42.1583 28.8405 41.8723 28.9845 41.6243C29.1285 41.3723 29.3285 41.1783 29.5845 41.0423C29.8445 40.9023 30.1445 40.8323 30.4845 40.8323ZM30.4545 43.4783C30.7345 43.4783 30.9625 43.3863 31.1385 43.2023C31.3145 43.0143 31.4025 42.7723 31.4025 42.4763C31.4025 42.1803 31.3145 41.9383 31.1385 41.7503C30.9625 41.5623 30.7345 41.4683 30.4545 41.4683C30.1705 41.4683 29.9425 41.5603 29.7705 41.7443C29.5985 41.9283 29.5125 42.1703 29.5125 42.4703C29.5125 42.7703 29.5985 43.0143 29.7705 43.2023C29.9465 43.3863 30.1745 43.4783 30.4545 43.4783ZM36.0166 40.8683V44.0723H35.3026V43.6583C35.1786 43.8103 35.0246 43.9243 34.8406 44.0003C34.6606 44.0763 34.4606 44.1143 34.2406 44.1143C33.9286 44.1143 33.6486 44.0463 33.4006 43.9103C33.1566 43.7743 32.9646 43.5823 32.8246 43.3343C32.6886 43.0863 32.6206 42.7983 32.6206 42.4703C32.6206 42.1423 32.6886 41.8563 32.8246 41.6123C32.9646 41.3643 33.1566 41.1723 33.4006 41.0363C33.6486 40.9003 33.9286 40.8323 34.2406 40.8323C34.4486 40.8323 34.6386 40.8683 34.8106 40.9403C34.9866 41.0123 35.1386 41.1183 35.2666 41.2583V40.8683H36.0166ZM34.3246 43.4723C34.6006 43.4723 34.8286 43.3803 35.0086 43.1963C35.1886 43.0123 35.2786 42.7703 35.2786 42.4703C35.2786 42.1703 35.1886 41.9283 35.0086 41.7443C34.8286 41.5603 34.6006 41.4683 34.3246 41.4683C34.0486 41.4683 33.8206 41.5603 33.6406 41.7443C33.4646 41.9283 33.3766 42.1703 33.3766 42.4703C33.3766 42.7703 33.4646 43.0123 33.6406 43.1963C33.8206 43.3803 34.0486 43.4723 34.3246 43.4723ZM41.0539 40.8323C41.4579 40.8323 41.7779 40.9503 42.0139 41.1863C42.2499 41.4183 42.3679 41.7683 42.3679 42.2363V44.0723H41.6179V42.3323C41.6179 42.0523 41.5559 41.8423 41.4319 41.7023C41.3079 41.5583 41.1299 41.4863 40.8979 41.4863C40.6459 41.4863 40.4439 41.5703 40.2919 41.7383C40.1399 41.9023 40.0639 42.1383 40.0639 42.4463V44.0723H39.3139V42.3323C39.3139 42.0523 39.2519 41.8423 39.1279 41.7023C39.0039 41.5583 38.8259 41.4863 38.5939 41.4863C38.3379 41.4863 38.1339 41.5683 37.9819 41.7323C37.8339 41.8963 37.7599 42.1343 37.7599 42.4463V44.0723H37.0099V40.8683H37.7239V41.2763C37.8439 41.1323 37.9939 41.0223 38.1739 40.9463C38.3539 40.8703 38.5539 40.8323 38.7739 40.8323C39.0139 40.8323 39.2259 40.8783 39.4099 40.9703C39.5979 41.0583 39.7459 41.1903 39.8539 41.3663C39.9859 41.1983 40.1559 41.0683 40.3639 40.9763C40.5719 40.8803 40.8019 40.8323 41.0539 40.8323ZM46.3271 40.8683V44.0723H45.6131V43.6643C45.4931 43.8083 45.3431 43.9203 45.1631 44.0003C44.9871 44.0763 44.7951 44.1143 44.5871 44.1143C44.1591 44.1143 43.8211 43.9963 43.5731 43.7603C43.3251 43.5203 43.2011 43.1663 43.2011 42.6983V40.8683H43.9511V42.5963C43.9511 42.8843 44.0151 43.1003 44.1431 43.2443C44.2751 43.3843 44.4631 43.4543 44.7071 43.4543C44.9711 43.4543 45.1811 43.3723 45.3371 43.2083C45.4971 43.0403 45.5771 42.8003 45.5771 42.4883V40.8683H46.3271ZM49.6619 42.4043C50.0579 42.5243 50.2559 42.7803 50.2559 43.1723C50.2559 43.4603 50.1479 43.6823 49.9319 43.8383C49.7159 43.9943 49.3959 44.0723 48.9719 44.0723H47.3399V40.8683H48.9059C49.2979 40.8683 49.6039 40.9403 49.8239 41.0843C50.0439 41.2283 50.1539 41.4323 50.1539 41.6963C50.1539 41.8603 50.1099 42.0023 50.0219 42.1223C49.9379 42.2423 49.8179 42.3363 49.6619 42.4043ZM48.0539 42.2063H48.8399C49.2279 42.2063 49.4219 42.0723 49.4219 41.8043C49.4219 41.5443 49.2279 41.4143 48.8399 41.4143H48.0539V42.2063ZM48.9119 43.5263C49.3239 43.5263 49.5299 43.3923 49.5299 43.1243C49.5299 42.9843 49.4819 42.8803 49.3859 42.8123C49.2899 42.7403 49.1399 42.7043 48.9359 42.7043H48.0539V43.5263H48.9119ZM51.0548 40.8683H51.8048V42.1703H53.4188V40.8683H54.1688V44.0723H53.4188V42.8063H51.8048V44.0723H51.0548V40.8683ZM56.6019 44.1143C56.2779 44.1143 55.9859 44.0443 55.7259 43.9043C55.4659 43.7643 55.2619 43.5703 55.1139 43.3223C54.9699 43.0703 54.8979 42.7863 54.8979 42.4703C54.8979 42.1543 54.9699 41.8723 55.1139 41.6243C55.2619 41.3763 55.4659 41.1823 55.7259 41.0423C55.9859 40.9023 56.2779 40.8323 56.6019 40.8323C56.9299 40.8323 57.2239 40.9023 57.4839 41.0423C57.7439 41.1823 57.9459 41.3763 58.0899 41.6243C58.2379 41.8723 58.3119 42.1543 58.3119 42.4703C58.3119 42.7863 58.2379 43.0703 58.0899 43.3223C57.9459 43.5703 57.7439 43.7643 57.4839 43.9043C57.2239 44.0443 56.9299 44.1143 56.6019 44.1143ZM56.6019 43.4723C56.8779 43.4723 57.1059 43.3803 57.2859 43.1963C57.4659 43.0123 57.5559 42.7703 57.5559 42.4703C57.5559 42.1703 57.4659 41.9283 57.2859 41.7443C57.1059 41.5603 56.8779 41.4683 56.6019 41.4683C56.3259 41.4683 56.0979 41.5603 55.9179 41.7443C55.7419 41.9283 55.6539 42.1703 55.6539 42.4703C55.6539 42.7703 55.7419 43.0123 55.9179 43.1963C56.0979 43.3803 56.3259 43.4723 56.6019 43.4723ZM61.5128 41.5043H59.8028V44.0723H59.0528V40.8683H61.5128V41.5043ZM63.3461 44.1143C63.0221 44.1143 62.7301 44.0443 62.4701 43.9043C62.2101 43.7643 62.0061 43.5703 61.8581 43.3223C61.7141 43.0703 61.6421 42.7863 61.6421 42.4703C61.6421 42.1543 61.7141 41.8723 61.8581 41.6243C62.0061 41.3763 62.2101 41.1823 62.4701 41.0423C62.7301 40.9023 63.0221 40.8323 63.3461 40.8323C63.6741 40.8323 63.9681 40.9023 64.2281 41.0423C64.4881 41.1823 64.6901 41.3763 64.8341 41.6243C64.9821 41.8723 65.0561 42.1543 65.0561 42.4703C65.0561 42.7863 64.9821 43.0703 64.8341 43.3223C64.6901 43.5703 64.4881 43.7643 64.2281 43.9043C63.9681 44.0443 63.6741 44.1143 63.3461 44.1143ZM63.3461 43.4723C63.6221 43.4723 63.8501 43.3803 64.0301 43.1963C64.2101 43.0123 64.3001 42.7703 64.3001 42.4703C64.3001 42.1703 64.2101 41.9283 64.0301 41.7443C63.8501 41.5603 63.6221 41.4683 63.3461 41.4683C63.0701 41.4683 62.8421 41.5603 62.6621 41.7443C62.4861 41.9283 62.3981 42.1703 62.3981 42.4703C62.3981 42.7703 62.4861 43.0123 62.6621 43.1963C62.8421 43.3803 63.0701 43.4723 63.3461 43.4723ZM15.6541 46.8683V50.0723H14.9101V47.5043H13.3321V50.0723H12.5821V46.8683H15.6541ZM18.2501 46.8323C18.5821 46.8323 18.8721 46.9003 19.1201 47.0363C19.3721 47.1723 19.5661 47.3643 19.7021 47.6123C19.8421 47.8603 19.9121 48.1483 19.9121 48.4763C19.9121 48.8003 19.8461 49.0863 19.7141 49.3343C19.5821 49.5823 19.3961 49.7743 19.1561 49.9103C18.9201 50.0463 18.6461 50.1143 18.3341 50.1143C17.8901 50.1143 17.5421 49.9723 17.2901 49.6883V51.2363H16.5341V48.4823C16.5341 48.1583 16.6061 47.8723 16.7501 47.6243C16.8941 47.3723 17.0941 47.1783 17.3501 47.0423C17.6101 46.9023 17.9101 46.8323 18.2501 46.8323ZM18.2201 49.4783C18.5001 49.4783 18.7281 49.3863 18.9041 49.2023C19.0801 49.0143 19.1681 48.7723 19.1681 48.4763C19.1681 48.1803 19.0801 47.9383 18.9041 47.7503C18.7281 47.5623 18.5001 47.4683 18.2201 47.4683C17.9361 47.4683 17.7081 47.5603 17.5361 47.7443C17.3641 47.9283 17.2781 48.1703 17.2781 48.4703C17.2781 48.7703 17.3641 49.0143 17.5361 49.2023C17.7121 49.3863 17.9401 49.4783 18.2201 49.4783ZM23.6982 46.8683V50.0723H22.9842V49.6643C22.8642 49.8083 22.7142 49.9203 22.5342 50.0003C22.3582 50.0763 22.1662 50.1143 21.9582 50.1143C21.5302 50.1143 21.1922 49.9963 20.9442 49.7603C20.6962 49.5203 20.5722 49.1663 20.5722 48.6983V46.8683H21.3222V48.5963C21.3222 48.8843 21.3862 49.1003 21.5142 49.2443C21.6462 49.3843 21.8342 49.4543 22.0782 49.4543C22.3422 49.4543 22.5522 49.3723 22.7082 49.2083C22.8682 49.0403 22.9482 48.8003 22.9482 48.4883V46.8683H23.6982ZM26.584 48.4043C26.784 48.4603 26.938 48.5523 27.046 48.6803C27.158 48.8043 27.214 48.9543 27.214 49.1303C27.214 49.3263 27.148 49.5003 27.016 49.6523C26.884 49.8003 26.702 49.9163 26.47 50.0003C26.238 50.0843 25.974 50.1263 25.678 50.1263C25.43 50.1263 25.188 50.0983 24.952 50.0423C24.716 49.9823 24.502 49.8983 24.31 49.7903L24.526 49.2323C24.682 49.3203 24.858 49.3883 25.054 49.4363C25.25 49.4843 25.446 49.5083 25.642 49.5083C25.894 49.5083 26.09 49.4703 26.23 49.3943C26.374 49.3143 26.446 49.2063 26.446 49.0703C26.446 48.9463 26.39 48.8503 26.278 48.7823C26.17 48.7143 26.016 48.6803 25.816 48.6803H25.192V48.1763H25.756C25.944 48.1763 26.09 48.1443 26.194 48.0803C26.302 48.0163 26.356 47.9263 26.356 47.8103C26.356 47.6943 26.292 47.6023 26.164 47.5343C26.036 47.4663 25.86 47.4323 25.636 47.4323C25.316 47.4323 24.978 47.5103 24.622 47.6663L24.43 47.1143C24.85 46.9183 25.274 46.8203 25.702 46.8203C25.974 46.8203 26.218 46.8583 26.434 46.9343C26.65 47.0063 26.818 47.1103 26.938 47.2463C27.062 47.3783 27.124 47.5303 27.124 47.7023C27.124 47.8583 27.076 47.9983 26.98 48.1223C26.884 48.2423 26.752 48.3363 26.584 48.4043ZM27.9923 46.8683H28.7423V48.1703H30.3563V46.8683H31.1063V50.0723H30.3563V48.8063H28.7423V50.0723H27.9923V46.8683ZM35.2314 46.8683V50.0723H34.5174V49.6583C34.3934 49.8103 34.2394 49.9243 34.0554 50.0003C33.8754 50.0763 33.6754 50.1143 33.4554 50.1143C33.1434 50.1143 32.8634 50.0463 32.6154 49.9103C32.3714 49.7743 32.1794 49.5823 32.0394 49.3343C31.9034 49.0863 31.8354 48.7983 31.8354 48.4703C31.8354 48.1423 31.9034 47.8563 32.0394 47.6123C32.1794 47.3643 32.3714 47.1723 32.6154 47.0363C32.8634 46.9003 33.1434 46.8323 33.4554 46.8323C33.6634 46.8323 33.8534 46.8683 34.0254 46.9403C34.2014 47.0123 34.3534 47.1183 34.4814 47.2583V46.8683H35.2314ZM33.5394 49.4723C33.8154 49.4723 34.0434 49.3803 34.2234 49.1963C34.4034 49.0123 34.4934 48.7703 34.4934 48.4703C34.4934 48.1703 34.4034 47.9283 34.2234 47.7443C34.0434 47.5603 33.8154 47.4683 33.5394 47.4683C33.2634 47.4683 33.0354 47.5603 32.8554 47.7443C32.6794 47.9283 32.5914 48.1703 32.5914 48.4703C32.5914 48.7703 32.6794 49.0123 32.8554 49.1963C33.0354 49.3803 33.2634 49.4723 33.5394 49.4723ZM38.9427 46.8683V50.0723H38.1927V48.8303C37.8847 48.9783 37.5627 49.0523 37.2267 49.0523C36.8147 49.0523 36.4987 48.9583 36.2787 48.7703C36.0587 48.5783 35.9487 48.2863 35.9487 47.8943V46.8683H36.6987V47.8463C36.6987 48.0503 36.7587 48.2023 36.8787 48.3023C36.9987 48.4023 37.1687 48.4523 37.3887 48.4523C37.6687 48.4523 37.9367 48.3923 38.1927 48.2723V46.8683H38.9427ZM41.4633 49.4783C41.8113 49.4783 42.1013 49.3623 42.3333 49.1303L42.7293 49.5923C42.5893 49.7643 42.4093 49.8943 42.1893 49.9823C41.9693 50.0703 41.7213 50.1143 41.4453 50.1143C41.0933 50.1143 40.7833 50.0443 40.5153 49.9043C40.2473 49.7643 40.0393 49.5703 39.8913 49.3223C39.7473 49.0703 39.6753 48.7863 39.6753 48.4703C39.6753 48.1583 39.7453 47.8783 39.8853 47.6303C40.0293 47.3783 40.2253 47.1823 40.4733 47.0423C40.7253 46.9023 41.0093 46.8323 41.3253 46.8323C41.6253 46.8323 41.8973 46.8983 42.1413 47.0303C42.3893 47.1583 42.5853 47.3443 42.7293 47.5883C42.8733 47.8283 42.9453 48.1103 42.9453 48.4343L40.4913 48.9143C40.5673 49.0983 40.6893 49.2383 40.8573 49.3343C41.0253 49.4303 41.2273 49.4783 41.4633 49.4783ZM41.3253 47.4323C41.0493 47.4323 40.8253 47.5223 40.6533 47.7023C40.4853 47.8823 40.4013 48.1243 40.4013 48.4283V48.4343L42.2133 48.0863C42.1613 47.8903 42.0553 47.7323 41.8953 47.6123C41.7393 47.4923 41.5493 47.4323 41.3253 47.4323ZM43.6778 46.8683H44.4278V48.1703H46.0418V46.8683H46.7918V50.0723H46.0418V48.8063H44.4278V50.0723H43.6778V46.8683ZM47.797 46.8683H48.547V48.1703H50.161V46.8683H50.911V50.0723H50.161V48.8063H48.547V50.0723H47.797V46.8683ZM54.6221 46.8683V50.0723H53.9501V49.1063H53.1041L52.4501 50.0723H51.6461L52.4021 49.0043C52.1701 48.9243 51.9921 48.8023 51.8681 48.6383C51.7481 48.4703 51.6881 48.2643 51.6881 48.0203C51.6881 47.6523 51.8181 47.3683 52.0781 47.1683C52.3381 46.9683 52.6961 46.8683 53.1521 46.8683H54.6221ZM53.1761 47.4983C52.6921 47.4983 52.4501 47.6803 52.4501 48.0443C52.4501 48.4043 52.6841 48.5843 53.1521 48.5843H53.9501V47.4983H53.1761ZM61.1052 45.8723V50.0723H60.3252V48.2723H58.1532V50.0723H57.3732V45.8723H58.1532V47.6063H60.3252V45.8723H61.1052ZM65.1333 46.5323H63.0513L63.0573 50.0723H62.2893V45.8723H65.1393L65.1333 46.5323ZM69.3931 45.8723V48.7883C69.3931 49.4083 69.2231 49.8843 68.8831 50.2163C68.5471 50.5483 68.0811 50.7143 67.4851 50.7143C67.1331 50.7143 66.8131 50.6623 66.5251 50.5583C66.2371 50.4583 65.9931 50.3143 65.7931 50.1263L66.1111 49.5263C66.4831 49.8623 66.9371 50.0303 67.4731 50.0303C68.2331 50.0303 68.6131 49.6283 68.6131 48.8243V48.5063C68.3291 48.8663 67.9171 49.0463 67.3771 49.0463C66.8451 49.0463 66.4331 48.8943 66.1411 48.5903C65.8491 48.2863 65.7031 47.8503 65.7031 47.2823V45.8723H66.4831V47.2463C66.4831 47.6143 66.5711 47.8943 66.7471 48.0863C66.9271 48.2743 67.1771 48.3683 67.4971 48.3683C67.8371 48.3683 68.1071 48.2683 68.3071 48.0683C68.5111 47.8643 68.6131 47.5643 68.6131 47.1683V45.8723H69.3931Z" fill="#F8F7F7"/>
<path d="M11.2833 54.8683H12.0333V58.0723H11.2833V54.8683ZM11.6613 54.3403C11.5253 54.3403 11.4113 54.2983 11.3193 54.2143C11.2273 54.1263 11.1813 54.0183 11.1813 53.8903C11.1813 53.7623 11.2273 53.6563 11.3193 53.5723C11.4113 53.4843 11.5253 53.4403 11.6613 53.4403C11.7973 53.4403 11.9113 53.4823 12.0033 53.5663C12.0953 53.6463 12.1413 53.7483 12.1413 53.8723C12.1413 54.0043 12.0953 54.1163 12.0033 54.2083C11.9153 54.2963 11.8013 54.3403 11.6613 54.3403ZM16.197 58.0723V55.9483L15.117 57.7363H14.793L13.731 55.9423V58.0723H13.047V54.8683H13.833L14.973 56.8723L16.167 54.8683H16.869L16.875 58.0723H16.197ZM18.109 58.1143C17.973 58.1143 17.857 58.0683 17.761 57.9763C17.665 57.8803 17.617 57.7603 17.617 57.6163C17.617 57.4683 17.663 57.3483 17.755 57.2563C17.851 57.1643 17.969 57.1183 18.109 57.1183C18.249 57.1183 18.365 57.1643 18.457 57.2563C18.553 57.3483 18.601 57.4683 18.601 57.6163C18.601 57.7603 18.553 57.8803 18.457 57.9763C18.361 58.0683 18.245 58.1143 18.109 58.1143ZM19.4358 53.8723H22.7058V54.5143H20.2038V55.5463H21.4458C21.9498 55.5463 22.3318 55.6523 22.5918 55.8643C22.8558 56.0723 22.9878 56.3743 22.9878 56.7703C22.9878 57.1863 22.8438 57.5083 22.5558 57.7363C22.2678 57.9603 21.8578 58.0723 21.3258 58.0723H19.4358V53.8723ZM21.2838 57.4723C21.5838 57.4723 21.8118 57.4143 21.9678 57.2983C22.1238 57.1823 22.2018 57.0143 22.2018 56.7943C22.2018 56.3623 21.8958 56.1463 21.2838 56.1463H20.2038V57.4723H21.2838ZM25.1859 58.1143C24.8619 58.1143 24.5699 58.0443 24.3099 57.9043C24.0499 57.7643 23.8459 57.5703 23.6979 57.3223C23.5539 57.0703 23.4819 56.7863 23.4819 56.4703C23.4819 56.1543 23.5539 55.8723 23.6979 55.6243C23.8459 55.3763 24.0499 55.1823 24.3099 55.0423C24.5699 54.9023 24.8619 54.8323 25.1859 54.8323C25.5139 54.8323 25.8079 54.9023 26.0679 55.0423C26.3279 55.1823 26.5299 55.3763 26.6739 55.6243C26.8219 55.8723 26.8959 56.1543 26.8959 56.4703C26.8959 56.7863 26.8219 57.0703 26.6739 57.3223C26.5299 57.5703 26.3279 57.7643 26.0679 57.9043C25.8079 58.0443 25.5139 58.1143 25.1859 58.1143ZM25.1859 57.4723C25.4619 57.4723 25.6899 57.3803 25.8699 57.1963C26.0499 57.0123 26.1399 56.7703 26.1399 56.4703C26.1399 56.1703 26.0499 55.9283 25.8699 55.7443C25.6899 55.5603 25.4619 55.4683 25.1859 55.4683C24.9099 55.4683 24.6819 55.5603 24.5019 55.7443C24.3259 55.9283 24.2379 56.1703 24.2379 56.4703C24.2379 56.7703 24.3259 57.0123 24.5019 57.1963C24.6819 57.3803 24.9099 57.4723 25.1859 57.4723ZM30.0968 55.5043H28.3868V58.0723H27.6368V54.8683H30.0968V55.5043ZM33.658 54.8683V57.5863C33.658 58.7143 33.082 59.2783 31.93 59.2783C31.622 59.2783 31.33 59.2383 31.054 59.1583C30.778 59.0823 30.55 58.9703 30.37 58.8223L30.706 58.2583C30.846 58.3743 31.022 58.4663 31.234 58.5343C31.45 58.6063 31.668 58.6423 31.888 58.6423C32.24 58.6423 32.498 58.5623 32.662 58.4023C32.826 58.2423 32.908 57.9983 32.908 57.6703V57.5023C32.78 57.6423 32.624 57.7483 32.44 57.8203C32.256 57.8923 32.054 57.9283 31.834 57.9283C31.53 57.9283 31.254 57.8643 31.006 57.7363C30.762 57.6043 30.568 57.4203 30.424 57.1843C30.284 56.9483 30.214 56.6783 30.214 56.3743C30.214 56.0703 30.284 55.8023 30.424 55.5703C30.568 55.3343 30.762 55.1523 31.006 55.0243C31.254 54.8963 31.53 54.8323 31.834 54.8323C32.066 54.8323 32.276 54.8703 32.464 54.9463C32.656 55.0223 32.816 55.1383 32.944 55.2943V54.8683H33.658ZM31.948 57.2923C32.232 57.2923 32.464 57.2083 32.644 57.0403C32.828 56.8683 32.92 56.6463 32.92 56.3743C32.92 56.1063 32.828 55.8883 32.644 55.7203C32.464 55.5523 32.232 55.4683 31.948 55.4683C31.66 55.4683 31.424 55.5523 31.24 55.7203C31.06 55.8883 30.97 56.1063 30.97 56.3743C30.97 56.6463 31.06 56.8683 31.24 57.0403C31.424 57.2083 31.66 57.2923 31.948 57.2923ZM37.7881 54.8683V58.0723H37.0741V57.6583C36.9501 57.8103 36.7961 57.9243 36.6121 58.0003C36.4321 58.0763 36.2321 58.1143 36.0121 58.1143C35.7001 58.1143 35.4201 58.0463 35.1721 57.9103C34.9281 57.7743 34.7361 57.5823 34.5961 57.3343C34.4601 57.0863 34.3921 56.7983 34.3921 56.4703C34.3921 56.1423 34.4601 55.8563 34.5961 55.6123C34.7361 55.3643 34.9281 55.1723 35.1721 55.0363C35.4201 54.9003 35.7001 54.8323 36.0121 54.8323C36.2201 54.8323 36.4101 54.8683 36.5821 54.9403C36.7581 55.0123 36.9101 55.1183 37.0381 55.2583V54.8683H37.7881ZM36.0961 57.4723C36.3721 57.4723 36.6001 57.3803 36.7801 57.1963C36.9601 57.0123 37.0501 56.7703 37.0501 56.4703C37.0501 56.1703 36.9601 55.9283 36.7801 55.7443C36.6001 55.5603 36.3721 55.4683 36.0961 55.4683C35.8201 55.4683 35.5921 55.5603 35.4121 55.7443C35.2361 55.9283 35.1481 56.1703 35.1481 56.4703C35.1481 56.7703 35.2361 57.0123 35.4121 57.1963C35.5921 57.3803 35.8201 57.4723 36.0961 57.4723ZM38.7813 54.8683H39.5313V56.1703H41.1453V54.8683H41.8953V58.0723H41.1453V56.8063H39.5313V58.0723H38.7813V54.8683ZM46.0205 54.8683V58.0723H45.3065V57.6583C45.1825 57.8103 45.0285 57.9243 44.8445 58.0003C44.6645 58.0763 44.4645 58.1143 44.2445 58.1143C43.9325 58.1143 43.6525 58.0463 43.4045 57.9103C43.1605 57.7743 42.9685 57.5823 42.8285 57.3343C42.6925 57.0863 42.6245 56.7983 42.6245 56.4703C42.6245 56.1423 42.6925 55.8563 42.8285 55.6123C42.9685 55.3643 43.1605 55.1723 43.4045 55.0363C43.6525 54.9003 43.9325 54.8323 44.2445 54.8323C44.4525 54.8323 44.6425 54.8683 44.8145 54.9403C44.9905 55.0123 45.1425 55.1183 45.2705 55.2583V54.8683H46.0205ZM44.3285 57.4723C44.6045 57.4723 44.8325 57.3803 45.0125 57.1963C45.1925 57.0123 45.2825 56.7703 45.2825 56.4703C45.2825 56.1703 45.1925 55.9283 45.0125 55.7443C44.8325 55.5603 44.6045 55.4683 44.3285 55.4683C44.0525 55.4683 43.8245 55.5603 43.6445 55.7443C43.4685 55.9283 43.3805 56.1703 43.3805 56.4703C43.3805 56.7703 43.4685 57.0123 43.6445 57.1963C43.8245 57.3803 44.0525 57.4723 44.3285 57.4723ZM50.964 55.8823C51.216 55.9623 51.412 56.0923 51.552 56.2723C51.696 56.4483 51.768 56.6563 51.768 56.8963C51.768 57.1483 51.686 57.3683 51.522 57.5563C51.358 57.7403 51.138 57.8823 50.862 57.9823C50.59 58.0823 50.292 58.1323 49.968 58.1323C49.688 58.1323 49.406 58.0943 49.122 58.0183C48.842 57.9383 48.582 57.8203 48.342 57.6643L48.594 57.0943C48.778 57.2183 48.982 57.3143 49.206 57.3823C49.43 57.4463 49.652 57.4783 49.872 57.4783C50.188 57.4783 50.45 57.4163 50.658 57.2923C50.87 57.1683 50.976 56.9983 50.976 56.7823C50.976 56.5983 50.9 56.4583 50.748 56.3623C50.596 56.2663 50.386 56.2183 50.118 56.2183H49.14V55.6063H50.058C50.29 55.6063 50.472 55.5583 50.604 55.4623C50.736 55.3663 50.802 55.2363 50.802 55.0723C50.802 54.8763 50.712 54.7243 50.532 54.6163C50.356 54.5083 50.13 54.4543 49.854 54.4543C49.666 54.4543 49.472 54.4823 49.272 54.5383C49.072 54.5903 48.884 54.6683 48.708 54.7723L48.462 54.1423C48.678 54.0263 48.906 53.9403 49.146 53.8843C49.39 53.8243 49.632 53.7943 49.872 53.7943C50.184 53.7943 50.47 53.8423 50.73 53.9383C50.994 54.0343 51.204 54.1723 51.36 54.3523C51.516 54.5283 51.594 54.7363 51.594 54.9763C51.594 55.1843 51.538 55.3663 51.426 55.5223C51.314 55.6783 51.16 55.7983 50.964 55.8823ZM55.6885 54.8683V58.0723H54.9745V57.6583C54.8505 57.8103 54.6965 57.9243 54.5125 58.0003C54.3325 58.0763 54.1325 58.1143 53.9125 58.1143C53.6005 58.1143 53.3205 58.0463 53.0725 57.9103C52.8285 57.7743 52.6365 57.5823 52.4965 57.3343C52.3605 57.0863 52.2925 56.7983 52.2925 56.4703C52.2925 56.1423 52.3605 55.8563 52.4965 55.6123C52.6365 55.3643 52.8285 55.1723 53.0725 55.0363C53.3205 54.9003 53.6005 54.8323 53.9125 54.8323C54.1205 54.8323 54.3105 54.8683 54.4825 54.9403C54.6585 55.0123 54.8105 55.1183 54.9385 55.2583V54.8683H55.6885ZM53.9965 57.4723C54.2725 57.4723 54.5005 57.3803 54.6805 57.1963C54.8605 57.0123 54.9505 56.7703 54.9505 56.4703C54.9505 56.1703 54.8605 55.9283 54.6805 55.7443C54.5005 55.5603 54.2725 55.4683 53.9965 55.4683C53.7205 55.4683 53.4925 55.5603 53.3125 55.7443C53.1365 55.9283 53.0485 56.1703 53.0485 56.4703C53.0485 56.7703 53.1365 57.0123 53.3125 57.1963C53.4925 57.3803 53.7205 57.4723 53.9965 57.4723ZM59.0037 56.4043C59.3997 56.5243 59.5977 56.7803 59.5977 57.1723C59.5977 57.4603 59.4897 57.6823 59.2737 57.8383C59.0577 57.9943 58.7377 58.0723 58.3137 58.0723H56.6817V54.8683H58.2477C58.6397 54.8683 58.9457 54.9403 59.1657 55.0843C59.3857 55.2283 59.4957 55.4323 59.4957 55.6963C59.4957 55.8603 59.4517 56.0023 59.3637 56.1223C59.2797 56.2423 59.1597 56.3363 59.0037 56.4043ZM57.3957 56.2063H58.1817C58.5697 56.2063 58.7637 56.0723 58.7637 55.8043C58.7637 55.5443 58.5697 55.4143 58.1817 55.4143H57.3957V56.2063ZM58.2537 57.5263C58.6657 57.5263 58.8717 57.3923 58.8717 57.1243C58.8717 56.9843 58.8237 56.8803 58.7277 56.8123C58.6317 56.7403 58.4817 56.7043 58.2777 56.7043H57.3957V57.5263H58.2537ZM63.5166 54.8683V58.0723H62.8026V57.6583C62.6786 57.8103 62.5246 57.9243 62.3406 58.0003C62.1606 58.0763 61.9606 58.1143 61.7406 58.1143C61.4286 58.1143 61.1486 58.0463 60.9006 57.9103C60.6566 57.7743 60.4646 57.5823 60.3246 57.3343C60.1886 57.0863 60.1206 56.7983 60.1206 56.4703C60.1206 56.1423 60.1886 55.8563 60.3246 55.6123C60.4646 55.3643 60.6566 55.1723 60.9006 55.0363C61.1486 54.9003 61.4286 54.8323 61.7406 54.8323C61.9486 54.8323 62.1386 54.8683 62.3106 54.9403C62.4866 55.0123 62.6386 55.1183 62.7666 55.2583V54.8683H63.5166ZM61.8246 57.4723C62.1006 57.4723 62.3286 57.3803 62.5086 57.1963C62.6886 57.0123 62.7786 56.7703 62.7786 56.4703C62.7786 56.1703 62.6886 55.9283 62.5086 55.7443C62.3286 55.5603 62.1006 55.4683 61.8246 55.4683C61.5486 55.4683 61.3206 55.5603 61.1406 55.7443C60.9646 55.9283 60.8766 56.1703 60.8766 56.4703C60.8766 56.7703 60.9646 57.0123 61.1406 57.1963C61.3206 57.3803 61.5486 57.4723 61.8246 57.4723ZM67.6659 54.8683V57.5863C67.6659 58.7143 67.0899 59.2783 65.9379 59.2783C65.6299 59.2783 65.3379 59.2383 65.0619 59.1583C64.7859 59.0823 64.5579 58.9703 64.3779 58.8223L64.7139 58.2583C64.8539 58.3743 65.0299 58.4663 65.2419 58.5343C65.4579 58.6063 65.6759 58.6423 65.8959 58.6423C66.2479 58.6423 66.5059 58.5623 66.6699 58.4023C66.8339 58.2423 66.9159 57.9983 66.9159 57.6703V57.5023C66.7879 57.6423 66.6319 57.7483 66.4479 57.8203C66.2639 57.8923 66.0619 57.9283 65.8419 57.9283C65.5379 57.9283 65.2619 57.8643 65.0139 57.7363C64.7699 57.6043 64.5759 57.4203 64.4319 57.1843C64.2919 56.9483 64.2219 56.6783 64.2219 56.3743C64.2219 56.0703 64.2919 55.8023 64.4319 55.5703C64.5759 55.3343 64.7699 55.1523 65.0139 55.0243C65.2619 54.8963 65.5379 54.8323 65.8419 54.8323C66.0739 54.8323 66.2839 54.8703 66.4719 54.9463C66.6639 55.0223 66.8239 55.1383 66.9519 55.2943V54.8683H67.6659ZM65.9559 57.2923C66.2399 57.2923 66.4719 57.2083 66.6519 57.0403C66.8359 56.8683 66.9279 56.6463 66.9279 56.3743C66.9279 56.1063 66.8359 55.8883 66.6519 55.7203C66.4719 55.5523 66.2399 55.4683 65.9559 55.4683C65.6679 55.4683 65.4319 55.5523 65.2479 55.7203C65.0679 55.8883 64.9779 56.1063 64.9779 56.3743C64.9779 56.6463 65.0679 56.8683 65.2479 57.0403C65.4319 57.2083 65.6679 57.2923 65.9559 57.2923ZM71.7119 54.8683V58.0723H70.9979V57.6643C70.8779 57.8083 70.7279 57.9203 70.5479 58.0003C70.3719 58.0763 70.1799 58.1143 69.9719 58.1143C69.5439 58.1143 69.2059 57.9963 68.9579 57.7603C68.7099 57.5203 68.5859 57.1663 68.5859 56.6983V54.8683H69.3359V56.5963C69.3359 56.8843 69.3999 57.1003 69.5279 57.2443C69.6599 57.3843 69.8479 57.4543 70.0919 57.4543C70.3559 57.4543 70.5659 57.3723 70.7219 57.2083C70.8819 57.0403 70.9619 56.8003 70.9619 56.4883V54.8683H71.7119Z" fill="#F8F7F7"/>
</svg>
